<svg width="160" height="160" viewBox="0 0 160 160" fill="none" xmlns="http://www.w3.org/2000/svg">
<rect width="160" height="160" rx="40" fill="#292524"/>
<path d="M90 84.9999L80 69.9999L70 84.9999" stroke="#F5F5F4" stroke-width="8" stroke-linecap="round" stroke-linejoin="round"/>
<path d="M92.5001 47.4999C92.5001 59.9999 80.0001 69.9999 80.0001 69.9999C80.0001 69.9999 67.5001 59.9999 67.5001 47.4999C67.5001 34.9999 73.0966 29.9999 80.0001 29.9999C86.9036 29.9999 92.5001 34.9999 92.5001 47.4999Z" stroke="#F5F5F4" stroke-width="8" stroke-linejoin="round"/>
<path d="M112.5 97.5001C100 97.5001 90.0001 85.0001 90.0001 85.0001C90.0001 85.0001 100 72.5001 112.5 72.5001C125 72.5001 130 78.0966 130 85.0001C130 91.9036 125 97.5001 112.5 97.5001Z" stroke="#F5F5F4" stroke-width="8" stroke-linejoin="round"/>
<path d="M47.4999 97.5001C59.9999 97.5001 69.9999 85.0001 69.9999 85.0001C69.9999 85.0001 59.9999 72.5001 47.4999 72.5001C34.9999 72.5001 29.9999 78.0966 29.9999 85.0001C29.9999 91.9036 34.9999 97.5001 47.4999 97.5001Z" stroke="#F5F5F4" stroke-width="8" stroke-linejoin="round"/>
<path d="M100 130C100 130 85 99.9998 70 84.9998" stroke="#F5F5F4" stroke-width="8" stroke-linecap="round" stroke-linejoin="round"/>
<path d="M60 130C60 130 75 99.9998 90 84.9998" stroke="#F5F5F4" stroke-width="8" stroke-linecap="round" stroke-linejoin="round"/>
</svg>
