<svg width="191" height="24" viewBox="0 0 191 24" fill="none" xmlns="http://www.w3.org/2000/svg">
<path d="M14 13L12 10L10 13" stroke="#292524" stroke-width="2" stroke-linecap="round" stroke-linejoin="round"/>
<path d="M14.5 5.5C14.5 8 12 10 12 10C12 10 9.5 8 9.5 5.5C9.5 3 10.6193 2 12 2C13.3807 2 14.5 3 14.5 5.5Z" stroke="#292524" stroke-width="2" stroke-linejoin="round"/>
<path d="M18.5 15.5C16 15.5 14 13 14 13C14 13 16 10.5 18.5 10.5C21 10.5 22 11.6193 22 13C22 14.3807 21 15.5 18.5 15.5Z" stroke="#292524" stroke-width="2" stroke-linejoin="round"/>
<path d="M5.5 15.5C8 15.5 10 13 10 13C10 13 8 10.5 5.5 10.5C3 10.5 2 11.6193 2 13C2 14.3807 3 15.5 5.5 15.5Z" stroke="#292524" stroke-width="2" stroke-linejoin="round"/>
<path d="M16 22C16 22 13 16 10 13" stroke="#292524" stroke-width="2" stroke-linecap="round" stroke-linejoin="round"/>
<path d="M8 22C8 22 11 16 14 13" stroke="#292524" stroke-width="2" stroke-linecap="round" stroke-linejoin="round"/>
<path d="M32 17.8338L36.987 6.19945H39.1243L44.0781 17.8338H41.8083L38.826 10.8199C38.7598 10.6427 38.6769 10.4266 38.5775 10.1717C38.4891 9.9169 38.3897 9.65097 38.2793 9.37396C38.1799 9.08587 38.0805 8.8144 37.9811 8.55956C37.8927 8.29363 37.8209 8.07202 37.7657 7.89474L38.2462 7.87812C38.1799 8.1108 38.097 8.36011 37.9976 8.62604C37.9093 8.88089 37.8154 9.14127 37.716 9.4072C37.6166 9.66205 37.5172 9.9169 37.4177 10.1717C37.3183 10.4155 37.23 10.6482 37.1527 10.8698L34.1704 17.8338H32ZM34.2367 15.241L35.0154 13.3629H40.9302L41.5432 15.241H34.2367Z" fill="#292524"/>
<path d="M51.6811 17.9335C50.6539 17.9335 49.7482 17.7175 48.964 17.2853C48.1798 16.8532 47.5612 16.2604 47.1084 15.5069C46.6666 14.7424 46.4456 13.8837 46.4456 12.9307V6.18283H48.6161V12.8144C48.6161 13.4127 48.7541 13.9446 49.0303 14.41C49.3064 14.8753 49.6764 15.2465 50.1403 15.5235C50.6042 15.8006 51.1178 15.9391 51.6811 15.9391C52.2886 15.9391 52.8299 15.8006 53.3048 15.5235C53.7798 15.2465 54.1553 14.8753 54.4314 14.41C54.7076 13.9446 54.8456 13.4127 54.8456 12.8144V6.18283H56.9332V12.9307C56.9332 13.8837 56.7068 14.7424 56.2539 15.5069C55.8121 16.2604 55.1991 16.8532 54.4149 17.2853C53.6307 17.7175 52.7194 17.9335 51.6811 17.9335Z" fill="#292524"/>
<path d="M63.678 17.8338V8.19391H59.9004V6.19945H69.7087V8.19391H65.8318V17.8338H63.678Z" fill="#292524"/>
<path d="M77.8211 18C76.9043 18 76.0594 17.8504 75.2862 17.5512C74.5241 17.2521 73.8558 16.831 73.2815 16.2881C72.7071 15.7452 72.2653 15.108 71.956 14.3767C71.6468 13.6454 71.4921 12.8532 71.4921 12C71.4921 11.1468 71.6468 10.3546 71.956 9.62327C72.2653 8.89197 72.7071 8.25485 73.2815 7.71191C73.8558 7.16897 74.5241 6.74792 75.2862 6.44875C76.0594 6.14958 76.9043 6 77.8211 6C78.7379 6 79.5828 6.14958 80.356 6.44875C81.1292 6.74792 81.7974 7.17451 82.3607 7.72853C82.9241 8.27147 83.3604 8.90859 83.6696 9.63989C83.9899 10.3601 84.1501 11.1468 84.1501 12C84.1501 12.8421 83.9899 13.6288 83.6696 14.3601C83.3604 15.0914 82.9241 15.7341 82.3607 16.2881C81.7974 16.831 81.1292 17.2521 80.356 17.5512C79.5828 17.8504 78.7379 18 77.8211 18ZM77.8211 15.9391C78.4286 15.9391 78.9809 15.8449 79.4779 15.6565C79.986 15.4571 80.4223 15.1801 80.7868 14.8255C81.1623 14.4598 81.4495 14.0388 81.6483 13.5623C81.8582 13.0859 81.9631 12.5651 81.9631 12C81.9631 11.4349 81.8582 10.9141 81.6483 10.4377C81.4495 9.96122 81.1623 9.54571 80.7868 9.19114C80.4223 8.82548 79.986 8.54848 79.4779 8.36011C78.9809 8.16066 78.4286 8.06094 77.8211 8.06094C77.2247 8.06094 76.6724 8.16066 76.1643 8.36011C75.6562 8.54848 75.2144 8.82548 74.8389 9.19114C74.4744 9.54571 74.1927 9.96122 73.9939 10.4377C73.7951 10.9141 73.6957 11.4349 73.6957 12C73.6957 12.5651 73.7951 13.0859 73.9939 13.5623C74.1927 14.0388 74.4744 14.4598 74.8389 14.8255C75.2144 15.1801 75.6562 15.4571 76.1643 15.6565C76.6724 15.8449 77.2247 15.9391 77.8211 15.9391Z" fill="#292524"/>
<path d="M91.8028 18C91.0407 18 90.3393 17.9169 89.6987 17.7507C89.0691 17.5734 88.5003 17.3186 87.9922 16.9861C87.4952 16.6537 87.0368 16.2493 86.6171 15.7729L87.9425 14.1108C88.5831 14.8532 89.2182 15.374 89.8478 15.6731C90.4774 15.9723 91.1677 16.1219 91.9188 16.1219C92.3496 16.1219 92.7528 16.0665 93.1283 15.9557C93.5038 15.8449 93.8076 15.6787 94.0395 15.4571C94.2715 15.2244 94.3875 14.9474 94.3875 14.626C94.3875 14.4155 94.3322 14.2327 94.2218 14.0776C94.1113 13.9114 93.9567 13.7729 93.7579 13.662C93.5701 13.5402 93.3437 13.4349 93.0786 13.3463C92.8245 13.2576 92.5539 13.1856 92.2668 13.1302C91.9796 13.0637 91.6814 13.0083 91.3721 12.964C90.7094 12.8532 90.1184 12.7036 89.5993 12.5152C89.0802 12.3269 88.6439 12.0886 88.2904 11.8006C87.937 11.5014 87.6664 11.1579 87.4786 10.7701C87.3019 10.3823 87.2135 9.93352 87.2135 9.42382C87.2135 8.91413 87.3295 8.44875 87.5614 8.0277C87.8044 7.60665 88.1358 7.24654 88.5555 6.94737C88.9863 6.6482 89.4778 6.41551 90.0301 6.24931C90.5934 6.0831 91.1954 6 91.836 6C92.5539 6 93.1946 6.07756 93.7579 6.23269C94.3322 6.38781 94.8348 6.61496 95.2656 6.91413C95.6963 7.2133 96.0608 7.56787 96.3591 7.97784L95.0005 9.44044C94.7354 9.09695 94.4372 8.8144 94.1058 8.5928C93.7744 8.36011 93.41 8.18837 93.0123 8.07756C92.6257 7.95568 92.2226 7.89474 91.8028 7.89474C91.3389 7.89474 90.9303 7.95014 90.5768 8.06094C90.2344 8.17175 89.9583 8.33241 89.7484 8.54294C89.5496 8.75346 89.4502 9.00831 89.4502 9.30748C89.4502 9.54017 89.5109 9.74515 89.6324 9.92244C89.765 10.0997 89.9472 10.2548 90.1792 10.3878C90.4222 10.5208 90.7094 10.6316 91.0407 10.7202C91.3831 10.8089 91.7587 10.8864 92.1673 10.9529C92.7969 11.0637 93.3823 11.2022 93.9236 11.3684C94.4648 11.5346 94.9342 11.7452 95.3318 12C95.7405 12.2548 96.0553 12.5706 96.2762 12.9474C96.4971 13.313 96.6076 13.7562 96.6076 14.277C96.6076 15.0416 96.4032 15.7064 95.9946 16.2715C95.5969 16.8255 95.0391 17.2521 94.3212 17.5512C93.6032 17.8504 92.7638 18 91.8028 18Z" fill="#292524"/>
<path d="M100.036 17.8338V6.19945H108.552V8.16066H102.157V15.8726H108.619V17.8338H100.036ZM101.097 12.8476V10.9197H107.707V12.8476H101.097Z" fill="#292524"/>
<path d="M112.446 17.8338V6.19945H114.451L122.105 15.2909L121.807 15.3573C121.752 15.0249 121.708 14.687 121.675 14.3435C121.641 13.9889 121.608 13.6288 121.575 13.2632C121.553 12.8975 121.531 12.5208 121.509 12.133C121.498 11.7452 121.487 11.3518 121.476 10.9529C121.476 10.5429 121.476 10.1219 121.476 9.68975V6.19945H123.613V17.8338H121.575L113.888 8.87535L114.252 8.759C114.285 9.2133 114.318 9.62327 114.352 9.98892C114.385 10.3546 114.418 10.6925 114.451 11.0028C114.484 11.3019 114.506 11.5845 114.517 11.8504C114.539 12.1053 114.556 12.3601 114.567 12.615C114.578 12.8587 114.584 13.097 114.584 13.3296V17.8338H112.446Z" fill="#292524"/>
<path d="M127.833 17.8338V6.19945H133.019C133.947 6.19945 134.775 6.34349 135.504 6.63158C136.244 6.91967 136.874 7.32964 137.393 7.8615C137.923 8.39335 138.321 9.01385 138.586 9.72299C138.862 10.4211 139 11.1856 139 12.0166C139 12.8587 138.862 13.6343 138.586 14.3435C138.321 15.0526 137.929 15.6676 137.409 16.1884C136.89 16.7091 136.261 17.1136 135.521 17.4017C134.781 17.6898 133.947 17.8338 133.019 17.8338H127.833ZM129.987 16.1551L129.821 15.8393H132.936C133.566 15.8393 134.118 15.7452 134.593 15.5568C135.079 15.3684 135.482 15.1025 135.802 14.759C136.123 14.4155 136.366 14.0166 136.531 13.5623C136.697 13.097 136.78 12.5817 136.78 12.0166C136.78 11.4626 136.697 10.9529 136.531 10.4875C136.366 10.0222 136.117 9.61773 135.786 9.27424C135.465 8.93075 135.068 8.66482 134.593 8.47645C134.118 8.28809 133.566 8.19391 132.936 8.19391H129.772L129.987 7.91136V16.1551Z" fill="#292524"/>
<line x1="147.5" y1="4" x2="147.5" y2="20" stroke="#A6A09B"/>
<path d="M156.435 17V7.06H158.913C159.818 7.06 160.598 7.256 161.251 7.648C161.914 8.03067 162.418 8.59533 162.763 9.342C163.118 10.0793 163.295 10.98 163.295 12.044C163.295 13.108 163.118 14.0087 162.763 14.746C162.418 15.4833 161.914 16.0433 161.251 16.426C160.598 16.8087 159.818 17 158.913 17H156.435ZM158.157 15.404H158.913C159.744 15.404 160.383 15.124 160.831 14.564C161.279 14.004 161.503 13.164 161.503 12.044C161.503 10.9147 161.279 10.07 160.831 9.51C160.383 8.94067 159.744 8.656 158.913 8.656H158.157V15.404ZM168.525 17.224C167.732 17.224 167.055 17.0233 166.495 16.622C165.945 16.2207 165.525 15.6327 165.235 14.858C164.946 14.0833 164.801 13.1453 164.801 12.044C164.801 10.924 164.946 9.97667 165.235 9.202C165.525 8.42733 165.945 7.83933 166.495 7.438C167.055 7.03667 167.732 6.836 168.525 6.836C169.319 6.836 169.991 7.03667 170.541 7.438C171.101 7.83933 171.526 8.42733 171.815 9.202C172.105 9.97667 172.249 10.924 172.249 12.044C172.249 13.1453 172.105 14.0833 171.815 14.858C171.526 15.6327 171.101 16.2207 170.541 16.622C169.991 17.0233 169.319 17.224 168.525 17.224ZM168.525 15.656C168.945 15.656 169.3 15.5253 169.589 15.264C169.879 15.0027 170.093 14.606 170.233 14.074C170.383 13.5327 170.457 12.856 170.457 12.044C170.457 11.232 170.383 10.5553 170.233 10.014C170.093 9.47267 169.879 9.07133 169.589 8.81C169.3 8.53933 168.945 8.404 168.525 8.404C168.105 8.404 167.751 8.53933 167.461 8.81C167.172 9.07133 166.953 9.47267 166.803 10.014C166.663 10.5553 166.593 11.232 166.593 12.044C166.593 12.856 166.663 13.5327 166.803 14.074C166.953 14.606 167.172 15.0027 167.461 15.264C167.751 15.5253 168.105 15.656 168.525 15.656ZM177.536 17.224C176.724 17.224 176.038 17.014 175.478 16.594C174.918 16.174 174.489 15.5767 174.19 14.802C173.901 14.0273 173.756 13.108 173.756 12.044C173.756 10.9707 173.901 10.0467 174.19 9.272C174.489 8.49733 174.918 7.9 175.478 7.48C176.038 7.05067 176.724 6.836 177.536 6.836C178.469 6.836 179.249 7.144 179.874 7.76C180.499 8.376 180.901 9.24867 181.078 10.378L179.3 10.462C179.179 9.79 178.959 9.28133 178.642 8.936C178.334 8.58133 177.965 8.404 177.536 8.404C177.097 8.404 176.729 8.54867 176.43 8.838C176.141 9.118 175.921 9.52867 175.772 10.07C175.623 10.6113 175.548 11.2693 175.548 12.044C175.548 12.8093 175.623 13.4627 175.772 14.004C175.921 14.5453 176.141 14.956 176.43 15.236C176.729 15.516 177.097 15.656 177.536 15.656C177.984 15.656 178.371 15.4693 178.698 15.096C179.025 14.7133 179.244 14.158 179.356 13.43L181.134 13.5C180.966 14.676 180.565 15.5907 179.93 16.244C179.305 16.8973 178.507 17.224 177.536 17.224ZM186.533 17.224C185.805 17.224 185.17 17.0793 184.629 16.79C184.097 16.5007 183.677 16.0947 183.369 15.572C183.061 15.04 182.879 14.4147 182.823 13.696L184.587 13.598C184.652 14.0553 184.769 14.438 184.937 14.746C185.114 15.0447 185.343 15.2733 185.623 15.432C185.912 15.5813 186.243 15.656 186.617 15.656C186.971 15.656 187.27 15.6093 187.513 15.516C187.765 15.4227 187.956 15.2827 188.087 15.096C188.217 14.9093 188.283 14.6853 188.283 14.424C188.283 14.144 188.217 13.9013 188.087 13.696C187.956 13.4907 187.723 13.2993 187.387 13.122C187.051 12.9447 186.57 12.772 185.945 12.604C185.273 12.4267 184.722 12.2213 184.293 11.988C183.863 11.7547 183.546 11.4653 183.341 11.12C183.135 10.7653 183.033 10.322 183.033 9.79C183.033 9.19267 183.163 8.67467 183.425 8.236C183.695 7.788 184.083 7.44267 184.587 7.2C185.1 6.95733 185.711 6.836 186.421 6.836C187.121 6.836 187.718 6.97133 188.213 7.242C188.707 7.50333 189.095 7.88133 189.375 8.376C189.664 8.86133 189.841 9.44 189.907 10.112L188.129 10.196C188.082 9.832 187.984 9.51933 187.835 9.258C187.695 8.98733 187.499 8.77733 187.247 8.628C187.004 8.47867 186.705 8.404 186.351 8.404C185.875 8.404 185.497 8.52533 185.217 8.768C184.937 9.00133 184.797 9.30933 184.797 9.692C184.797 9.96267 184.857 10.1867 184.979 10.364C185.109 10.5413 185.329 10.7 185.637 10.84C185.945 10.98 186.379 11.12 186.939 11.26C187.713 11.4653 188.325 11.708 188.773 11.988C189.23 12.268 189.557 12.604 189.753 12.996C189.949 13.388 190.047 13.85 190.047 14.382C190.047 14.9513 189.902 15.4507 189.613 15.88C189.323 16.3093 188.917 16.6407 188.395 16.874C187.872 17.1073 187.251 17.224 186.533 17.224Z" fill="#A6A09B"/>
</svg>
