<svg width="24" height="24" viewBox="0 0 24 24" fill="none" xmlns="http://www.w3.org/2000/svg">
<path d="M6 16C7.10457 16 8 16.8954 8 18C8 19.1046 7.10457 20 6 20C4.89543 20 4 19.1046 4 18C4 16.8954 4.89543 16 6 16Z" stroke="#292524" stroke-width="1.5"/>
<path d="M12 4C13.1046 4 14 4.8954 14 6C14 7.1046 13.1046 8 12 8C10.8954 8 10 7.1046 10 6C10 4.8954 10.8954 4 12 4Z" stroke="#292524" stroke-width="1.5"/>
<path d="M18 16C19.1046 16 20 16.8954 20 18C20 19.1046 19.1046 20 18 20C16.8954 20 16 19.1046 16 18C16 16.8954 16.8954 16 18 16Z" stroke="#292524" stroke-width="1.5"/>
<path d="M6.01734 15.2593C6.01734 13.5858 5.77537 11.8005 9.22051 12.0145H12.0053M12.0053 12.0145H15.7861C16.9199 12.2352 18.1259 12.0145 17.9929 15.4238M12.0053 12.0145V8.2999" stroke="#292524" stroke-width="1.5" stroke-linecap="round" stroke-linejoin="round"/>
</svg>
