<svg width="24" height="24" viewBox="0 0 24 24" fill="none" xmlns="http://www.w3.org/2000/svg">
<path d="M9 5.98511V17.9851M9 5.98511C9 4.88054 9.89543 3.98511 11 3.98511M9 5.98511C9 4.88054 8.10457 3.98511 7 3.98511M9 17.9851C9 19.0897 9.89543 19.9851 11 19.9851M9 17.9851C9 19.0897 8.10457 19.9851 7 19.9851" stroke="currentColor" stroke-width="1.5" stroke-linecap="round" stroke-linejoin="round"/>
<path d="M12 7.98511H18C19.8856 7.98511 20.8284 7.98511 21.4142 8.5709C22 9.15668 22 10.0995 22 11.9851C22 13.8707 22 14.8135 21.4142 15.3993C20.8284 15.9851 19.8856 15.9851 18 15.9851H12M6 15.9851C4.11438 15.9851 3.17157 15.9851 2.58579 15.3993C2 14.8135 2 13.8707 2 11.9851C2 10.0995 2 9.15668 2.58579 8.5709C3.17157 7.98511 4.11438 7.98511 6 7.98511" stroke="currentColor" stroke-width="1.5" stroke-linecap="round" stroke-linejoin="round"/>
</svg>
