<svg width="24" height="24" viewBox="0 0 24 24" fill="none" xmlns="http://www.w3.org/2000/svg">
<path d="M4.51243 19.4717C7.02486 21.8645 10.0159 20.9074 11.2123 19.9383C11.8313 19.4369 12.1096 19.1128 12.3488 18.8735C13.1863 18.0958 13.1325 17.3182 12.5881 16.6961C12.3703 16.4471 10.973 15.1049 9.63301 13.729C8.9391 13.035 8.46054 12.5446 8.05137 12.1498C7.50342 11.6036 7.02487 10.9773 6.30703 10.9952C5.64901 10.9952 5.17045 11.5755 4.57225 12.1737C3.8841 12.8618 3.37586 13.729 3.1964 14.5067C2.65802 16.7798 3.4955 18.3949 4.51243 19.4717ZM4.51243 19.4717L2 21.9841" stroke="#292524" stroke-width="1.5" stroke-linecap="round"/>
<path d="M19.4865 4.49983C16.9734 2.10589 13.9927 3.08104 12.796 4.05059C12.1768 4.55223 11.8985 4.87649 11.6591 5.11589C10.8214 5.89392 10.8753 6.67194 11.4198 7.29437C11.4981 7.38392 11.729 7.61486 12.0548 7.93792M12.0548 7.93792C12.6353 8.51342 13.5173 9.38123 14.3757 10.2628C15.0698 10.9572 15.6545 11.5552 16.0638 11.9502C16.6119 12.4966 16.9845 13.0159 17.7026 12.9979C18.3608 12.9979 18.8395 12.4174 19.4378 11.8189C20.1262 11.1304 20.6345 10.2628 20.814 9.48482C21.3526 7.21058 20.5038 5.5771 19.4865 4.49983M19.4865 4.49983L21.9997 1.98621M12.0548 7.93792L10.5112 9.4912M16.0638 11.9502L14.5022 13.4747" stroke="#292524" stroke-width="1.5" stroke-linecap="round"/>
</svg>
