<svg width="24" height="24" viewBox="0 0 24 24" fill="none" xmlns="http://www.w3.org/2000/svg">
<path d="M21.9001 10C20.9735 5.43552 16.938 2 12.1001 2C6.57725 2 2.1001 6.47715 2.1001 12C2.1001 17.5228 6.57725 22 12.1001 22C13.1453 22 14.1531 21.8396 15.1001 21.5422" stroke="#141B34" stroke-width="1.5" stroke-linecap="round" stroke-linejoin="round"/>
<path d="M12.1001 8V12L14.1001 14" stroke="#141B34" stroke-width="1.5" stroke-linecap="round" stroke-linejoin="round"/>
<path d="M20.1001 18V14" stroke="#141B34" stroke-width="1.5" stroke-linecap="round" stroke-linejoin="round"/>
<path d="M20.2251 21.75H20.1001M20.3501 21.75C20.3501 21.8881 20.2382 22 20.1001 22C19.9621 22 19.8501 21.8881 19.8501 21.75C19.8501 21.6119 19.9621 21.5 20.1001 21.5C20.2382 21.5 20.3501 21.6119 20.3501 21.75Z" stroke="#141B34" stroke-width="1.5" stroke-linecap="round" stroke-linejoin="round"/>
</svg>
