<svg width="24" height="24" viewBox="0 0 24 24" fill="none" xmlns="http://www.w3.org/2000/svg">
<path d="M2 4.99994L8.91302 8.92456C11.4387 10.3584 12.5613 10.3584 15.087 8.92456L22 4.99994" stroke="#141B34" stroke-width="1.5" stroke-linejoin="round"/>
<path d="M21.9194 11.0333C21.9194 10.54 21.9142 10.0466 21.9037 9.55189C21.8387 6.47433 21.8061 4.93555 20.6796 3.79566C19.5529 2.65578 17.9851 2.61607 14.8492 2.53665C12.9165 2.4877 11.0029 2.4877 9.07023 2.53664C5.93442 2.61605 4.36651 2.65576 3.23994 3.79565C2.11336 4.93554 2.08082 6.47432 2.0157 9.55188C1.99476 10.5415 1.99477 11.5251 2.01571 12.5147C2.08082 15.5923 2.11337 17.131 3.23995 18.271C4.36651 19.4108 5.93442 19.4505 9.07024 19.5299C10.0366 19.5544 10.9981 19.5666 11.9597 19.5666" stroke="#141B34" stroke-width="1.5" stroke-linecap="round" stroke-linejoin="round"/>
<path d="M22.0002 21.5003C21.8841 18.9757 21.987 18.0573 20.3439 16.8792C19.5363 16.3002 17.9116 15.9188 15.7178 16.1247M17.452 13.5927L15.1553 15.7463C14.9612 15.9406 14.9598 16.256 15.152 16.452L17.452 18.6401" stroke="#141B34" stroke-width="1.5" stroke-linecap="round" stroke-linejoin="round"/>
</svg>
